<svg enable-background="new 0 0 58.153 58.153" viewBox="0 0 58.153 58.153" xmlns="http://www.w3.org/2000/svg"><path style="fill:#FA6D01;" d="m40.076 29.153h-7.142c-.364-1.399-1.459-2.494-2.858-2.858v-10.142c0-.553-.448-1-1-1s-1 .447-1 1v10.142c-1.72.447-3 1.999-3 3.858 0 2.206 1.794 4 4 4 1.858 0 3.411-1.28 3.858-3h7.142c.552 0 1-.447 1-1s-.447-1-1-1zm-11 3c-1.103 0-2-.897-2-2s.897-2 2-2 2 .897 2 2-.897 2-2 2z"/><path style="fill:#FA6D01;" d="m50.188 9.764 4.096 4.096c.188.188.442.293.707.293s.52-.105.707-.293c3.167-3.166 3.167-8.319 0-11.485-3.166-3.166-8.319-3.166-11.485 0-.188.188-.293.441-.293.707s.105.52.293.707l4.561 4.561-1.699 1.699c-4.78-4.284-11.089-6.896-17.998-6.896s-13.218 2.612-17.998 6.896l-1.7-1.699 4.561-4.561c.188-.188.293-.441.293-.707s-.105-.52-.293-.707c-3.166-3.166-8.319-3.166-11.485 0-3.167 3.166-3.167 8.319 0 11.485.188.188.442.293.707.293s.52-.105.707-.293l4.096-4.096 1.676 1.676c-4.679 4.857-7.565 11.453-7.565 18.713 0 9.898 5.357 18.564 13.321 23.265l-3.028 3.028c-.391.391-.391 1.023 0 1.414.195.195.451.293.707.293s.512-.098.707-.293l3.45-3.45c3.578 1.754 7.597 2.743 11.843 2.743s8.265-.989 11.843-2.743l3.45 3.45c.195.195.451.293.707.293s.512-.098.707-.293c.391-.391.391-1.023 0-1.414l-3.028-3.028c7.964-4.701 13.321-13.367 13.321-23.265 0-7.26-2.886-13.856-7.565-18.713zm4.095-5.975c2.146 2.146 2.362 5.502.649 7.893l-8.541-8.542c2.389-1.713 5.746-1.498 7.892.649zm-51.063 7.892c-1.713-2.39-1.497-5.746.649-7.892s5.503-2.361 7.892-.649zm25.856 43.472c-13.785 0-25-11.215-25-25s11.215-25 25-25 25 11.215 25 25-11.214 25-25 25z"/><path style="fill:#FA6D01;" d="m48.958 18.61c-2.01-3.449-4.89-6.328-8.338-8.338-.016-.011-.026-.028-.043-.038-.018-.01-.037-.01-.055-.019-3.373-1.944-7.28-3.063-11.445-3.063s-8.072 1.118-11.445 3.063c-.018.009-.038.008-.055.019-.017.01-.026.027-.043.038-3.449 2.01-6.328 4.889-8.338 8.338-.011.017-.028.026-.038.043s-.01.037-.018.055c-1.944 3.374-3.063 7.28-3.063 11.445s1.119 8.072 3.063 11.445c.009.018.008.037.018.055.014.025.035.043.051.066 2.01 3.438 4.884 6.309 8.325 8.315.016.011.026.028.043.038.026.015.054.021.08.033 3.368 1.935 7.265 3.048 11.42 3.048s8.052-1.113 11.42-3.048c.026-.012.054-.018.08-.033.017-.01.026-.027.043-.038 3.441-2.006 6.315-4.876 8.325-8.315.016-.023.037-.041.051-.066.01-.017.01-.037.018-.055 1.944-3.374 3.063-7.28 3.063-11.445s-1.119-8.072-3.063-11.445c-.009-.018-.008-.037-.018-.055-.011-.017-.028-.027-.038-.043zm-8.539 29.189-.477-.826c-.277-.478-.888-.643-1.366-.366-.478.276-.642.888-.366 1.366l.479.829c-2.603 1.347-5.52 2.153-8.612 2.3v-.949c0-.553-.448-1-1-1s-1 .447-1 1v.949c-3.092-.146-6.009-.953-8.612-2.3l.479-.829c.276-.479.112-1.09-.366-1.366-.481-.276-1.09-.111-1.366.366l-.477.826c-2.525-1.628-4.675-3.779-6.303-6.303l.826-.477c.478-.276.642-.888.366-1.366-.277-.478-.887-.645-1.366-.366l-.829.479c-1.347-2.603-2.153-5.521-2.3-8.612h.949c.552 0 1-.447 1-1s-.448-1-1-1h-.951c.147-3.092.953-6.01 2.3-8.612l.829.479c.158.091.33.134.499.134.346 0 .682-.18.867-.5.276-.479.112-1.09-.366-1.366l-.826-.479c1.628-2.524 3.779-4.675 6.303-6.303l.477.826c.186.32.521.5.867.5.169 0 .341-.043.499-.134.478-.276.642-.888.366-1.366l-.479-.829c2.603-1.347 5.52-2.153 8.612-2.3v.949c0 .553.448 1 1 1s1-.447 1-1v-.949c3.092.146 6.009.953 8.612 2.3l-.479.829c-.276.479-.112 1.09.366 1.366.158.091.33.134.499.134.346 0 .682-.18.867-.5l.477-.826c2.525 1.628 4.675 3.779 6.303 6.303l-.826.477c-.478.276-.642.888-.366 1.366.186.32.521.5.867.5.169 0 .341-.043.499-.134l.829-.479c1.347 2.603 2.153 5.521 2.3 8.612h-.949c-.552 0-1 .447-1 1s.448 1 1 1h.949c-.147 3.092-.953 6.01-2.3 8.612l-.829-.479c-.48-.278-1.09-.111-1.366.366-.276.479-.112 1.09.366 1.366l.826.477c-1.626 2.526-3.776 4.676-6.301 6.305z"/></svg>