<svg height="512pt" viewBox="0 0 512 512" width="512pt" xmlns="http://www.w3.org/2000/svg"><path style="fill:#FA6D01;" d="m25.601562 452.265625h204.796876c4.714843 0 8.535156-3.820313 8.535156-8.53125 0-4.714844-3.820313-8.535156-8.535156-8.535156h-204.796876c-4.714843 0-8.535156-3.820313-8.535156-8.53125v-401.066407c0-4.714843 3.820313-8.535156 8.535156-8.535156 14.136719 0 25.597657 11.460938 25.597657 25.601563v25.597656c0 9.425781 7.640625 17.066406 17.066406 17.066406h290.132813v110.933594c0 4.714844 3.820312 8.535156 8.535156 8.535156 4.710937 0 8.53125-3.820312 8.53125-8.535156v-110.933594h34.136718c9.425782 0 17.066407-7.640625 17.066407-17.066406v-25.597656c-.03125-23.554688-19.117188-42.6406252-42.667969-42.667969h-358.398438c-14.140624 0-25.601562 11.460938-25.601562 25.601562v401.066407c0 14.136719 11.460938 25.597656 25.601562 25.597656zm358.398438-435.199219c14.136719 0 25.601562 11.460938 25.601562 25.601563v25.597656h-341.335937v-25.597656c-.03125-9.265625-3.105469-18.257813-8.753906-25.601563zm0 0"/><path style="fill:#FA6D01;" d="m128 418.132812c51.839844 0 93.867188-42.023437 93.867188-93.867187 0-51.839844-42.027344-93.867187-93.867188-93.867187s-93.867188 42.027343-93.867188 93.867187c.0625 51.816406 42.050782 93.804687 93.867188 93.867187zm0-170.667968c42.414062 0 76.800781 34.386718 76.800781 76.800781 0 42.417969-34.386719 76.800781-76.800781 76.800781s-76.800781-34.382812-76.800781-76.800781c.050781-42.394531 34.40625-76.746094 76.800781-76.800781zm0 0"/><path style="fill:#FA6D01;" d="m477.867188 221.867188h-187.734376c-18.851562 0-34.132812 15.28125-34.132812 34.132812v221.867188c0 18.851562 15.28125 34.132812 34.132812 34.132812h187.734376c18.851562 0 34.132812-15.28125 34.132812-34.132812v-221.867188c0-18.851562-15.28125-34.132812-34.132812-34.132812zm-187.734376 17.066406h187.734376c9.425781 0 17.066406 7.640625 17.066406 17.066406h-221.867188c0-9.425781 7.640625-17.066406 17.066406-17.066406zm-17.066406 85.332031v-51.199219h58.027344l-44.800781 51.199219zm80.675782-51.199219h21.722656l-15.359375 20.480469c-1.828125 2.4375-2.21875 5.667969-1.019531 8.472656 1.199218 2.804688 3.800781 4.753907 6.828124 5.121094 3.023438.363281 6.015626-.914063 7.847657-3.355469l23.039062-30.71875h98.132813v51.199219h-186.027344zm124.125 221.867188h-187.734376c-9.425781 0-17.066406-7.640625-17.066406-17.066406v-136.535157h221.867188v136.535157c0 9.425781-7.640625 17.066406-17.066406 17.066406zm0 0"/><path style="fill:#FA6D01;" d="m324.265625 119.464844h-264.53125c-4.714844 0-8.535156 3.824218-8.535156 8.535156s3.820312 8.535156 8.535156 8.535156h264.53125c4.714844 0 8.535156-3.824218 8.535156-8.535156s-3.820312-8.535156-8.535156-8.535156zm0 0"/><path style="fill:#FA6D01;" d="m59.734375 170.667969h51.199219c4.710937 0 8.53125-3.820313 8.53125-8.535157 0-4.710937-3.820313-8.53125-8.53125-8.53125h-51.199219c-4.714844 0-8.535156 3.820313-8.535156 8.53125 0 4.714844 3.820312 8.535157 8.535156 8.535157zm0 0"/><path style="fill:#FA6D01;" d="m324.265625 153.601562h-162.132813c-4.710937 0-8.53125 3.820313-8.53125 8.53125 0 4.714844 3.820313 8.535157 8.53125 8.535157h162.132813c4.714844 0 8.535156-3.820313 8.535156-8.535157 0-4.710937-3.820312-8.53125-8.535156-8.53125zm0 0"/><path style="fill:#FA6D01;" d="m59.734375 204.800781h145.066406c4.710938 0 8.53125-3.820312 8.53125-8.535156 0-4.710937-3.820312-8.53125-8.53125-8.53125h-145.066406c-4.714844 0-8.535156 3.820313-8.535156 8.53125 0 4.714844 3.820312 8.535156 8.535156 8.535156zm0 0"/><path style="fill:#FA6D01;" d="m324.265625 187.734375h-68.265625c-4.710938 0-8.535156 3.820313-8.535156 8.53125 0 4.714844 3.824218 8.535156 8.535156 8.535156h68.265625c4.714844 0 8.535156-3.820312 8.535156-8.535156 0-4.710937-3.820312-8.53125-8.535156-8.53125zm0 0"/><path style="fill:#FA6D01;" d="m324.265625 358.398438h-17.066406c-9.425781 0-17.066407 7.640624-17.066407 17.066406v17.070312c0 9.425782 7.640626 17.066406 17.066407 17.066406h17.066406c9.425781 0 17.066406-7.640624 17.066406-17.066406v-17.070312c0-9.425782-7.640625-17.066406-17.066406-17.066406zm-17.066406 34.136718v-17.070312h17.066406v17.070312zm0 0"/><path style="fill:#FA6D01;" d="m324.265625 426.667969h-17.066406c-9.425781 0-17.066407 7.640625-17.066407 17.066406v17.066406c0 9.425781 7.640626 17.066407 17.066407 17.066407h17.066406c9.425781 0 17.066406-7.640626 17.066406-17.066407v-17.066406c0-9.425781-7.640625-17.066406-17.066406-17.066406zm-17.066406 34.132812v-17.066406h17.066406v17.066406zm0 0"/><path style="fill:#FA6D01;" d="m392.535156 358.398438h-17.070312c-9.425782 0-17.066406 7.640624-17.066406 17.066406v17.070312c0 9.425782 7.640624 17.066406 17.066406 17.066406h17.070312c9.425782 0 17.066406-7.640624 17.066406-17.066406v-17.070312c0-9.425782-7.640624-17.066406-17.066406-17.066406zm-17.070312 34.136718v-17.070312h17.070312v17.070312zm0 0"/><path style="fill:#FA6D01;" d="m460.800781 358.398438h-17.066406c-9.425781 0-17.066406 7.640624-17.066406 17.066406v85.335937c0 9.425781 7.640625 17.066407 17.066406 17.066407h17.066406c9.425781 0 17.066407-7.640626 17.066407-17.066407v-85.335937c0-9.425782-7.640626-17.066406-17.066407-17.066406zm-17.066406 102.402343v-85.335937h17.066406v85.335937zm0 0"/><path style="fill:#FA6D01;" d="m392.535156 426.667969h-17.070312c-9.425782 0-17.066406 7.640625-17.066406 17.066406v17.066406c0 9.425781 7.640624 17.066407 17.066406 17.066407h17.070312c9.425782 0 17.066406-7.640626 17.066406-17.066407v-17.066406c0-9.425781-7.640624-17.066406-17.066406-17.066406zm-17.070312 34.132812v-17.066406h17.070312v17.066406zm0 0"/><path style="fill:#FA6D01;" d="m136.535156 349.867188h-34.136718c-4.710938 0-8.53125 3.820312-8.53125 8.53125 0 4.714843 3.820312 8.535156 8.53125 8.535156h17.066406v8.53125c0 4.714844 3.824218 8.535156 8.535156 8.535156s8.535156-3.820312 8.535156-8.535156v-8.53125c14.136719 0 25.597656-11.460938 25.597656-25.601563 0-14.136719-11.460937-25.597656-25.597656-25.597656h-17.070312c-4.710938 0-8.53125-3.820313-8.53125-8.535156 0-4.710938 3.820312-8.53125 8.53125-8.53125h34.136718c4.710938 0 8.53125-3.820313 8.53125-8.535157 0-4.710937-3.820312-8.53125-8.53125-8.53125h-17.066406v-8.535156c0-4.710937-3.824218-8.53125-8.535156-8.53125s-8.535156 3.820313-8.535156 8.53125v8.535156c-14.136719 0-25.597656 11.460938-25.597656 25.597657 0 14.140625 11.460937 25.601562 25.597656 25.601562h17.070312c4.710938 0 8.53125 3.820313 8.53125 8.53125 0 4.714844-3.820312 8.535157-8.53125 8.535157zm0 0"/></svg>